# xmcd
#
# Track frame offsets:
#	150
#	23911
#	34667
#	50675
#	63522
#	91270
#	108863
#	123555
#	138525
#	158788
#	171496
#	195521
#	208394
#	223475
#	237277
#	250133
#	260223
#	281089
#	307285
#	326168
#
# Disc length: 4547 seconds
#
# Revision: 1
# Processed by: cddbd v1.5.2PL0 Copyright (c) Steve Scherf et al.
# Submitted via: audiograbber 1.83.01
#
DISCID=4511c114
DTITLE=Diversen - 100 Cabaret Hoogtepunten
DYEAR=1900
DGENRE=
TTITLE0=Karin Bloemen - Geen kind meer
TTITLE1=Frans Halsema - Zondagmiddag Buitenveldert
TTITLE2=Harrie Jekkers - Brief van een Haagse bijstandsmoeder aan Hare Majestei
TTITLE2=t
TTITLE3=Urbanus - Madammen met een bontjas
TTITLE4=Wim Sonneveld - Opa
TTITLE5=Conny Stuart - Zeur niet
TTITLE6=Kees van Kooten and Wim de Bie - Dat is de blues
TTITLE7=Adele Bloemendaal - Afscheidsbrief van een lelijk meisje
TTITLE8=Kabaret Lurelei and Eric Herfst - Kater
TTITLE9=Herman Finkers - Liefde is vreemd
TTITLE10=Don Quishocking - De mooiste meid
TTITLE11=Gerard Cox - Een broekje in de branding
TTITLE12=Liesbeth List and Ramses Shaffy - In oktober
TTITLE13=Cabaret Nar and Youp van 't Hek - Tunnel
TTITLE14=Seth Gaaikema - Ik zie een hinde lopen
TTITLE15=Ramses Shaffy - Marije
TTITLE16=Drs.P - Veerpont
TTITLE17=Kabaret Lurelei and Jasperina de Jong - Call girl
TTITLE18=Gerard Cox and Frans Halsema - Raden maar
TTITLE19=Freek de Jonge - Leven na de dood
EXTD=
EXTT0=
EXTT1=
EXTT2=
EXTT3=
EXTT4=
EXTT5=
EXTT6=
EXTT7=
EXTT8=
EXTT9=
EXTT10=
EXTT11=
EXTT12=
EXTT13=
EXTT14=
EXTT15=
EXTT16=
EXTT17=
EXTT18=
EXTT19=
PLAYORDER=
